<?xml version="1.0" encoding="UTF-8" standalone="no"?>
<!DOCTYPE svg PUBLIC "-//W3C//DTD SVG 1.1//EN" "http://www.w3.org/Graphics/SVG/1.1/DTD/svg11.dtd">
<svg width="100%" height="100%" viewBox="0 0 1500 301" version="1.1" xmlns="http://www.w3.org/2000/svg" xmlns:xlink="http://www.w3.org/1999/xlink" xml:space="preserve" xmlns:serif="http://www.serif.com/" style="fill-rule:evenodd;clip-rule:evenodd;stroke-linejoin:round;stroke-miterlimit:2;">
    <g transform="matrix(2.63347,0,0,2.13813,-237.012,-932.224)">
        <path d="M121,442C121,445.311 118.817,448 116.129,448L94.871,448C92.183,448 90,445.311 90,442C90,438.689 92.183,436 94.871,436L116.129,436C118.817,436 121,438.689 121,442Z" style="fill:rgb(124,92,255);"/>
    </g>
    <g transform="matrix(9.40525,0,0,1.94375,-822.273,-805.491)">
        <path d="M121,442C121,445.311 120.444,448 119.76,448L91.24,448C90.556,448 90,445.311 90,442C90,438.689 90.556,436 91.24,436L119.76,436C120.444,436 121,438.689 121,442Z" style="fill:rgb(124,92,255);"/>
    </g>
    <g transform="matrix(2.3325,0,0,2.3325,-207.593,-1019.3)">
        <circle cx="150.875" cy="557.5" r="8.5" style="fill:rgb(124,92,255);"/>
    </g>
    <g transform="matrix(2.3325,0,0,2.3325,-88.0418,-1019.3)">
        <circle cx="150.875" cy="557.5" r="8.5" style="fill:rgb(124,92,255);"/>
    </g>
    <g transform="matrix(5.49267,0,0,1.94375,-369.843,-628.221)">
        <path d="M121,442C121,445.311 120.049,448 118.877,448L92.123,448C90.951,448 90,445.311 90,442C90,438.689 90.951,436 92.123,436L118.877,436C120.049,436 121,438.689 121,442Z" style="fill:rgb(124,92,255);"/>
    </g>
    <g transform="matrix(0.881129,4.43388,-2.09712,0.416752,934.477,-503.701)">
        <path d="M121,442C121,445.311 119.728,448 118.162,448L92.838,448C91.272,448 90,445.311 90,442C90,438.689 91.272,436 92.838,436L118.162,436C119.728,436 121,438.689 121,442Z" style="fill:rgb(124,92,255);"/>
    </g>
    <g transform="matrix(-0.881129,4.43388,2.09712,0.416752,-515.21,-503.701)">
        <path d="M121,442C121,445.311 119.728,448 118.162,448L92.838,448C91.272,448 90,445.311 90,442C90,438.689 91.272,436 92.838,436L118.162,436C119.728,436 121,438.689 121,442Z" style="fill:rgb(124,92,255);"/>
    </g>
    <g transform="matrix(0.142394,0,0,0.142394,128.542,64.9313)">
        <path d="M981.159,532.572C977.566,490.758 967.182,450.061 950.683,412.392C942.318,393.606 932.611,375.507 921.266,358.549C918.504,354.269 915.5,350.144 912.557,346.001C911.084,343.93 909.495,341.935 907.971,339.905C906.432,337.884 904.913,335.854 903.283,333.902L898.476,328.005C896.834,326.074 895.127,324.196 893.457,322.295L888.426,316.623L887.17,315.208L885.85,313.849L883.205,311.14C869.229,296.602 854.064,283.422 838.012,271.678C821.913,259.988 804.931,249.748 787.346,240.991C752.175,223.484 714.555,211.917 676.487,206.787C713.465,217.224 748.214,233.723 779.109,254.999C794.556,265.639 809.045,277.474 822.35,290.355C835.607,303.29 847.674,317.257 858.33,332.057L860.352,334.81L861.358,336.187L862.298,337.614L866.056,343.308C867.298,345.209 868.576,347.078 869.786,348.993L873.291,354.815C874.485,356.732 875.569,358.724 876.67,360.698C877.757,362.682 878.906,364.621 879.94,366.631C882.005,370.653 884.125,374.623 886.005,378.725C893.815,394.958 899.971,411.883 904.861,429.033C914.416,463.434 918.142,499.067 916.172,533.863C914.112,568.656 906.317,602.584 893.182,633.445C879.987,664.21 861.263,692.253 838.705,716.364C816.07,740.415 789.642,760.502 761.242,775.587C744.446,784.452 726.97,791.534 709.25,796.725L694.698,733.269L504.853,909.813L752.647,985.973L737.264,918.888C767.964,906.47 796.651,890.33 822.737,871.282C858.746,844.852 889.909,812.898 915.038,777.023C940.072,741.102 959.028,701.134 970.234,659.226C981.323,617.361 984.645,574.375 981.159,532.572Z" style="fill:rgb(124,92,255);fill-rule:nonzero;"/>
    </g>
    <g transform="matrix(0.142394,0,0,0.142394,128.542,64.9313)">
        <path d="M316.631,796.562C303.373,783.627 291.307,769.661 280.65,754.86L278.629,752.108L277.623,750.73L276.682,749.303L272.925,743.609C271.683,741.709 270.405,739.839 269.194,737.925L265.69,732.103C264.495,730.185 263.412,728.193 262.31,726.219C261.224,724.235 260.075,722.297 259.04,720.287C256.976,716.265 254.856,712.295 252.976,708.193C245.166,691.959 239.009,675.035 234.119,657.884C224.564,623.483 220.838,587.851 222.809,553.055C224.869,518.261 232.664,484.333 245.798,453.472C258.993,422.707 277.718,394.664 300.276,370.554C322.911,346.503 349.338,326.416 377.738,311.33C394.535,302.465 412.01,295.384 429.731,290.193L444.282,353.648L634.128,177.104L386.333,100.944L401.717,168.03C371.017,180.447 342.33,196.588 316.244,215.635C280.235,242.066 249.071,274.019 223.943,309.894C198.909,345.815 179.953,385.784 168.747,427.691C157.657,469.557 154.335,512.542 157.821,554.345C161.415,596.16 171.799,636.857 188.297,674.525C196.663,693.311 206.37,711.411 217.715,728.368C220.477,732.648 223.481,736.774 226.424,740.916C227.896,742.987 229.485,744.982 231.009,747.012C232.548,749.033 234.067,751.063 235.698,753.015L240.504,758.912C242.146,760.843 243.854,762.721 245.523,764.622L250.554,770.295L251.811,771.709L253.13,773.069L255.776,775.777C269.751,790.315 284.917,803.495 300.969,815.24C317.068,826.929 334.049,837.17 351.634,845.926C386.806,863.433 424.426,875.001 462.493,880.13C425.516,869.694 390.767,853.195 359.871,831.918C344.425,821.278 329.936,809.444 316.631,796.562Z" style="fill:rgb(124,92,255);fill-rule:nonzero;"/>
    </g>
    <g transform="matrix(18.3965,0,0,18.3965,-6730.82,-9788.11)">
        <text x="387.078px" y="544.39px" style="font-family:'Helvetica-Bold', 'Helvetica';font-weight:700;font-size:12px;fill:white;">Pazar</text>
        <text x="419.099px" y="544.39px" style="font-family:'Helvetica-Bold', 'Helvetica';font-weight:700;font-size:12px;fill:rgb(124,92,255);">Sync</text>
    </g>
</svg>
