<?xml version="1.0" encoding="UTF-8" standalone="no"?>
<!DOCTYPE svg PUBLIC "-//W3C//DTD SVG 1.1//EN" "http://www.w3.org/Graphics/SVG/1.1/DTD/svg11.dtd">
<svg width="100%" height="100%" viewBox="0 0 400 122" version="1.1" xmlns="http://www.w3.org/2000/svg" xmlns:xlink="http://www.w3.org/1999/xlink" xml:space="preserve" xmlns:serif="http://www.serif.com/" style="fill-rule:evenodd;clip-rule:evenodd;stroke-linejoin:round;stroke-miterlimit:2;">
    <g transform="matrix(1,0,0,1,417.1,-23.9)">
        <path d="M-317.6,68.5C-312.7,63.7 -306.1,61 -299.2,61.1C-292.3,61 -285.7,63.7 -280.8,68.5C-275.4,73.4 -272.3,80.3 -272.1,87.6C-272.2,94.8 -275.3,101.7 -280.8,106.5C-285.7,111.4 -292.3,114 -299.2,113.9C-313.9,114.1 -326,102.4 -326.3,87.7L-326.3,87.6C-326.2,80.3 -323,73.4 -317.6,68.5M-288.9,80.8C-288.9,68.5 -290.3,62.8 -299.2,62.8C-308.1,62.8 -309.5,68.6 -309.5,80.8L-309.5,94C-309.5,106.3 -308.1,112 -299.2,112C-290.4,112 -288.9,106.2 -288.9,94L-288.9,80.8Z" style="fill:rgb(235,235,235);fill-rule:nonzero;"/>
        <path d="M-62.6,68.5C-57.7,63.7 -51.1,61 -44.2,61.1C-37.3,61 -30.7,63.7 -25.8,68.5C-20.4,73.4 -17.3,80.3 -17.1,87.6C-17.2,94.8 -20.3,101.7 -25.8,106.5C-30.7,111.4 -37.3,114 -44.2,113.9C-58.6,114.5 -70.7,103.2 -71.3,88.9C-71.6,81.2 -68.4,73.7 -62.6,68.5M-33.7,80.8C-33.7,68.5 -35.1,62.8 -44,62.8C-52.9,62.8 -54.3,68.6 -54.3,80.8L-54.3,94C-54.3,106.3 -52.9,112 -44,112C-35.1,112 -33.7,106.2 -33.7,94L-33.7,80.8Z" style="fill:rgb(235,235,235);fill-rule:nonzero;"/>
        <path d="M-350.8,61.1C-358.4,61 -365.3,65.3 -368.7,72.1C-370,65.4 -375.9,61.1 -384.4,61.1C-392.2,61.1 -398.3,64.9 -402.4,72.1L-402.4,61.1L-417.2,61.1L-417.2,112.5L-401.7,112.5L-401.7,80.2C-401.7,70.6 -396.1,64.7 -389.4,64.7C-384.7,64.7 -383.6,67.6 -383.6,73.4L-383.6,112.4L-368.3,112.4L-368.3,80.2C-368.3,70.6 -362.7,64.7 -356,64.7C-351.3,64.7 -350.2,67.6 -350.2,73.4L-350.2,112.4L-334.7,112.4L-334.7,75.9C-334.5,66.7 -340.8,61.1 -350.8,61.1" style="fill:rgb(235,235,235);fill-rule:nonzero;"/>
        <path d="M-235.1,61.1C-240.5,61.1 -245.6,64.9 -248.5,71.4L-248.5,61.1L-263.8,61.1L-263.8,112.5L-248.3,112.5L-248.3,79.9C-248.3,71.8 -244.5,65.8 -239.1,64.6C-240.3,66.4 -241,68.4 -241.1,70.6C-241.1,75 -237.5,78.5 -233.1,78.4C-228.7,78.4 -225.2,74.8 -225.3,70.4C-225.4,64.5 -228.8,61.1 -235.1,61.1" style="fill:rgb(235,235,235);fill-rule:nonzero;"/>
        <path d="M-102.7,61.1C-109.6,61.1 -114.8,64.5 -118.2,70.8L-118.2,61.1L-133,61.1L-133,145L-117.5,145L-117.5,104.9C-115,110.3 -109.6,113.8 -103.6,113.7C-89.3,113.7 -78.5,102.7 -78.5,87.9C-78.5,73.1 -89.5,61.1 -102.7,61.1M-105.2,111.4C-111.3,111.4 -117.5,105.1 -117.5,97.1L-117.5,80.4C-117.5,69.2 -112.8,63.4 -105.4,63.4C-97.3,63.4 -95.3,70.6 -95.3,86.3C-95.3,103 -96.7,111.4 -105.2,111.4" style="fill:rgb(235,235,235);fill-rule:nonzero;"/>
        <path d="M-184.8,61.1C-192.5,61 -199.7,65.2 -203.2,72.1L-203.2,23.9L-218,23.9L-218,112.5L-202.5,112.5L-202.5,80.2C-202.5,70.6 -196.7,64.7 -190.1,64.7C-185.2,64.7 -184.1,67.6 -184.1,73.4L-184.1,112.6L-168.6,112.6L-168.6,75.9C-168.5,66.7 -174.5,61.1 -184.8,61.1" style="fill:rgb(235,235,235);fill-rule:nonzero;"/>
        <path d="M-158.4,61.1L-158.4,112.3L-142.9,112.3L-142.9,61.1L-158.4,61.1Z" style="fill:rgb(235,235,235);fill-rule:nonzero;"/>
        <path d="M-142.9,38.9C-142.9,43.3 -146.5,46.8 -150.8,46.8C-155.2,46.8 -158.7,43.2 -158.7,38.9C-158.7,34.5 -155.1,31 -150.8,31C-146.4,31 -142.9,34.5 -142.9,38.8L-142.9,38.9" style="fill:rgb(235,235,235);fill-rule:nonzero;"/>
    </g>
</svg>
