<?xml version="1.0" encoding="UTF-8" standalone="no"?>
<!DOCTYPE svg PUBLIC "-//W3C//DTD SVG 1.1//EN" "http://www.w3.org/Graphics/SVG/1.1/DTD/svg11.dtd">
<svg width="100%" height="100%" viewBox="0 0 100 29" version="1.1" xmlns="http://www.w3.org/2000/svg" xmlns:xlink="http://www.w3.org/1999/xlink" xml:space="preserve" xmlns:serif="http://www.serif.com/" style="fill-rule:evenodd;clip-rule:evenodd;stroke-linejoin:round;stroke-miterlimit:2;">
    <g>
        <path d="M11.3,1C11.5,1 11.6,1.1 11.8,1.2C10.6,1.7 9.4,3 8.8,5.8L6.6,6.4C7.3,4.4 8.7,1 11.3,1ZM12.4,2C12.6,2.6 12.8,3.3 12.8,4.4L12.8,4.6L9.9,5.4C10.5,3.3 11.5,2.4 12.4,2ZM15,3.8L13.7,4.2L13.7,3.9C13.7,3 13.6,2.3 13.4,1.7C14.1,1.9 14.7,2.8 15,3.8ZM21.5,5.4C21.5,5.3 21.4,5.2 21.3,5.2C21.1,5.2 19,5 19,5C19,5 17.5,3.5 17.3,3.4C17.1,3.2 16.8,3.3 16.7,3.3C16.7,3.3 16.4,3.4 15.9,3.6C15.4,2.2 14.5,0.9 13,0.9L12.9,0.9C12.5,0.3 11.9,0.1 11.4,0.1C7.8,0 6.1,4.5 5.5,6.8C4.7,7 3.9,7.3 3,7.6C2.2,7.8 2.2,7.9 2.1,8.6C2,9.1 0,24.9 0,24.9L15.9,27.9L24.5,26C24.5,26 21.5,5.6 21.5,5.4Z" style="fill:rgb(184,235,106);fill-rule:nonzero;"/>
        <path d="M21.2,5.2C21.1,5.2 19,5 19,5C19,5 17.5,3.5 17.3,3.4C17.2,3.3 17.2,3.3 17.1,3.3L15.9,27.9L24.5,26C24.5,26 21.5,5.6 21.5,5.4C21.5,5.3 21.3,5.2 21.2,5.2" style="fill:rgb(134,197,96);fill-rule:nonzero;"/>
        <path d="M13,10L11.9,13.2C11.9,13.2 11,12.7 9.8,12.7C8.1,12.7 8,13.7 8,14C8,15.4 11.8,16 11.8,19.4C11.8,22.1 10.1,23.8 7.8,23.8C5.1,23.8 3.7,22.1 3.7,22.1L4.4,19.7C4.4,19.7 5.8,20.9 7,20.9C7.8,20.9 8.1,20.3 8.1,19.8C8.1,17.9 5,17.8 5,14.7C5,12.1 6.9,9.6 10.6,9.6C12.3,9.5 13,10 13,10" style="fill:rgb(255,255,254);fill-rule:nonzero;"/>
        <path d="M34.6,15.9C33.7,15.4 33.3,15 33.3,14.5C33.3,13.8 33.9,13.4 34.9,13.4C36,13.4 37,13.9 37,13.9L37.8,11.5C37.8,11.5 37.1,10.9 35,10.9C32,10.9 30,12.6 30,15C30,16.4 31,17.4 32.2,18.1C33.2,18.7 33.6,19.1 33.6,19.7C33.6,20.3 33.1,20.9 32.1,20.9C30.7,20.9 29.3,20.2 29.3,20.2L28.5,22.6C28.5,22.6 29.7,23.4 31.8,23.4C34.8,23.4 37,21.9 37,19.2C37,17.7 35.9,16.6 34.6,15.9M46.7,10.8C45.2,10.8 44,11.5 43.1,12.6L44.4,5.8L41,5.8L37.7,23.1L41.1,23.1L42.2,17.2C42.6,15 43.8,13.6 44.9,13.6C45.7,13.6 46,14.1 46,14.9C46,15.4 46,15.9 45.9,16.4L44.6,23.2L48,23.2L49.3,16.2C49.4,15.5 49.5,14.6 49.5,14C49.5,12 48.5,10.8 46.7,10.8M55.4,20.7C54.2,20.7 53.8,19.7 53.8,18.5C53.8,16.6 54.8,13.4 56.6,13.4C57.8,13.4 58.2,14.4 58.2,15.4C58.2,17.6 57.2,20.7 55.4,20.7ZM57.1,10.8C53,10.8 50.3,14.5 50.3,18.6C50.3,21.2 51.9,23.3 55,23.3C59,23.3 61.7,19.7 61.7,15.5C61.7,13.1 60.3,10.8 57.1,10.8ZM67.1,20.8C66.2,20.8 65.7,20.3 65.7,20.3L66.3,17.1C66.7,15 67.8,13.6 69,13.6C70,13.6 70.4,14.6 70.4,15.5C70.3,17.7 69,20.8 67.1,20.8ZM70.4,10.8C68.1,10.8 66.8,12.8 66.8,12.8L67,11L64,11C63.9,12.2 63.6,14.1 63.3,15.5L60.9,27.9L64.3,27.9L65.2,22.9L65.3,22.9C65.3,22.9 66,23.3 67.3,23.3C71.3,23.3 73.9,19.2 73.9,15.1C73.9,12.9 72.9,10.8 70.4,10.8ZM78.7,6C77.6,6 76.8,6.9 76.8,8C76.8,9 77.4,9.7 78.4,9.7C79.5,9.7 80.4,9 80.4,7.7C80.4,6.7 79.7,6 78.7,6M74,23.1L77.4,23.1L79.7,11.1L76.3,11.1L74,23.1ZM88.3,11.1L85.9,11.1L86,10.5C86.2,9.3 86.9,8.3 88,8.3C88.6,8.3 89.1,8.5 89.1,8.5L89.8,5.8C89.8,5.8 89.2,5.5 88,5.5C86.8,5.5 85.6,5.8 84.7,6.6C83.5,7.6 83,9 82.7,10.4L82.6,11L81,11L80.5,13.6L82.1,13.6L80.3,23.1L83.7,23.1L85.5,13.6L87.8,13.6L88.3,11.1ZM96.4,11.1C96.4,11.1 94.3,16.4 93.3,19.3C93.2,18.4 92.5,11.1 92.5,11.1L88.9,11.1L90.9,22.1C90.9,22.3 90.9,22.5 90.8,22.7C90.4,23.5 89.7,24.2 89,24.7C88.4,25.2 87.6,25.5 87.1,25.7L88,28.6C88.7,28.5 90.1,27.9 91.3,26.8C92.8,25.4 94.3,23.1 95.7,20.1L99.8,11.2L96.4,11.1Z" style="fill:rgb(224,224,224);fill-rule:nonzero;"/>
    </g>
</svg>
