<?xml version="1.0" encoding="UTF-8" standalone="no"?>
<!DOCTYPE svg PUBLIC "-//W3C//DTD SVG 1.1//EN" "http://www.w3.org/Graphics/SVG/1.1/DTD/svg11.dtd">
<svg width="100%" height="100%" viewBox="0 0 620 211" version="1.1" xmlns="http://www.w3.org/2000/svg" xmlns:xlink="http://www.w3.org/1999/xlink" xml:space="preserve" xmlns:serif="http://www.serif.com/" style="fill-rule:evenodd;clip-rule:evenodd;stroke-linejoin:round;stroke-miterlimit:2;">
    <g>
        <path d="M221.695,146.863L151.505,146.863C154.725,160.038 165.411,169.992 179.318,169.992C187.149,169.992 194.834,166.625 199.958,160.844L216.938,161.209C209.472,175.408 195.2,184.484 178.659,184.484C154.506,184.484 135.549,163.55 135.549,139.838C135.549,115.392 154.213,95.338 179.025,95.338C203.032,95.338 222.208,115.1 222.208,138.96C222.134,141.521 221.988,144.303 221.695,146.863ZM178.805,109.829C165.045,109.829 152.31,120.662 151.432,134.641L206.179,134.641C205.3,120.734 192.638,109.829 178.805,109.829ZM292.032,182.361L292.032,136.324C292.032,121.978 287.714,109.829 270.88,109.829C255.291,109.829 248.557,121.906 248.557,136.178L248.557,182.362L232.675,182.362L232.675,97.606L247.533,97.606L247.533,106.609L247.825,106.609C253.973,98.484 262.829,95.264 272.637,95.264C284.713,95.264 296.058,100.021 302.645,110.415C306.744,116.855 307.988,124.613 307.988,132.152L307.988,182.361L292.032,182.361ZM392.522,182.361L392.522,170.285L392.23,170.285C385.203,180.092 374.005,184.484 362.221,184.484C336.824,184.484 318.159,165.527 318.159,140.277C318.159,114.879 336.53,95.264 362.221,95.264C372.908,95.264 384.251,99.363 390.986,107.926L391.278,107.926L391.278,69.135L407.161,69.135L407.161,182.361L392.522,182.361ZM363.1,109.829C346.266,109.829 334.043,123.59 334.043,140.131C334.043,156.013 346.778,169.992 362.953,169.992C379.494,169.992 392.449,156.525 392.449,140.131C392.522,123.15 380.446,109.829 363.1,109.829ZM453.198,210.687L436.73,210.687L449.099,180.678L415.285,97.607L432.412,97.607L457.37,163.405L482.913,97.607L500.04,97.607L453.198,210.687ZM545.346,184.484C520.388,184.484 499.601,164.429 499.601,139.325C499.601,114.367 520.9,95.264 545.346,95.264C570.158,95.264 591.09,114.514 591.09,139.618C591.09,163.844 571.035,184.484 545.346,184.484ZM545.346,109.829C528.804,109.829 515.484,123.297 515.484,139.838C515.484,156.379 528.804,169.992 545.346,169.992C562.034,169.992 575.207,156.232 575.207,139.691C575.134,123.15 561.813,109.829 545.346,109.829ZM604.044,182.361L604.044,69.135L620,69.135L620,182.361L604.044,182.361ZM15.736,165.674C16.395,168.382 17.273,170.578 18.298,172.262C19.322,173.945 20.64,175.408 22.177,176.799C27.227,181.191 33.595,183.459 41.134,183.459C48.599,183.459 55.626,181.629 61.993,178.116L61.993,162.892C55.406,166.771 49.112,168.747 43.183,168.747C35.132,168.747 30.96,163.843 30.96,154.108L30.96,112.61L57.674,112.61L57.674,97.899L31.033,97.899L31.033,70.672L15.297,70.672L15.297,97.826L0,97.826L0,112.537L14.638,112.537L14.638,150.157C14.638,157.77 15.004,162.966 15.736,165.674ZM111.982,111.806C116.886,111.806 122.302,114.514 128.084,119.93L136.721,105.584C129.695,99.144 121.204,96.216 116.227,96.216L115.129,96.216C109.42,96.216 99.905,96.216 92.147,108.805L91.854,109.317L91.927,97.9L75.46,97.9L75.46,181.923L91.928,181.923L91.928,138.009C91.928,130.983 93.904,124.835 97.857,119.638C101.809,114.44 106.566,111.806 111.982,111.806Z" style="fill:white;fill-rule:nonzero;"/>
        <path d="M455.394,78.357C454.663,78.503 453.93,77.918 453.784,77.186L449.539,50.544C448.148,41.835 449.466,34.588 454.077,28.66C458.542,22.805 465.202,19.291 473.692,17.901L584.356,0.336C585.087,0.19 585.82,0.775 585.965,1.507L594.382,54.936C594.528,55.668 593.944,56.4 593.211,56.546L455.394,78.357Z" style="fill:white;fill-rule:nonzero;"/>
        <path d="M492.429,50.179C491.477,53.619 488.915,55.888 485.403,56.473C480.938,57.205 475.814,54.57 474.79,48.129C473.839,42.347 476.913,37.736 482.256,36.858C485.769,36.273 488.623,37.59 490.893,40.664L496.236,39.786C493.821,34.589 487.526,31.515 481.524,32.467C473.62,33.785 468.643,40.811 469.961,48.862C471.278,56.986 478.232,62.11 486.063,60.792C492.065,59.84 496.603,55.303 497.701,49.228L492.429,50.179ZM513.068,27.343C505.017,28.66 499.527,35.979 500.844,43.738C502.162,51.643 509.7,56.986 517.751,55.668C525.803,54.351 531.219,46.885 529.975,39.054C528.585,31.295 521.046,26.026 513.068,27.343ZM516.947,51.276C511.604,52.154 506.48,48.495 505.602,43.005C504.724,37.589 508.383,32.465 513.726,31.588C519.069,30.71 524.193,34.369 525.071,39.712C525.949,45.275 522.363,50.398 516.947,51.276ZM577.184,45.202L574.549,28.953C573.377,21.854 568.62,18.194 561.74,19.365C557.568,20.024 555.08,21.854 553.616,25.294L553.47,25.586L553.324,25.367C551.347,22.513 547.249,21.781 544.248,22.22C540.809,22.805 539.052,24.05 537.148,27.124L537.076,27.197L536.783,27.27L536.27,24.342L531.878,25.074L536.27,52.008L541.101,51.203L538.685,36.126C537.807,30.563 539.564,27.49 544.248,26.758C546.591,26.392 548.493,26.977 549.884,28.514C551.348,30.198 551.641,31.954 551.934,34.003L554.422,49.007L559.253,48.202L556.764,33.198C556.106,29.319 556.179,24.781 562.035,23.83C566.352,23.098 569.134,25.66 570.013,31.076L572.428,46.08L577.184,45.202ZM469.153,61.084C469.153,63.207 467.397,64.963 465.274,64.963C463.152,64.963 461.395,63.206 461.395,61.084C461.395,58.962 463.152,57.205 465.274,57.205C467.47,57.132 469.153,58.888 469.153,61.084Z" style="fill:rgb(255,116,0);fill-rule:nonzero;"/>
    </g>
</svg>
