<?xml version="1.0" encoding="utf-8"?>
<!-- Generator: Adobe Illustrator 26.0.3, SVG Export Plug-In . SVG Version: 6.00 Build 0)  -->
<svg version="1.0" id="katman_1" xmlns="http://www.w3.org/2000/svg" xmlns:xlink="http://www.w3.org/1999/xlink" x="0px" y="0px"
	 viewBox="0 0 130.1 92.1" style="enable-background:new 0 0 130.1 92.1;" xml:space="preserve">
<style type="text/css">
	.st0{clip-path:url(#SVGID_00000022521985967719058980000010958717763108681645_);}
	.st1{fill:#CBF200;}
	.st2{fill:#1D1D1B;}
</style>
<g>
	<defs>
		<rect id="SVGID_1_" x="14.5" y="33.6" width="100.5" height="25"/>
	</defs>
	<clipPath id="SVGID_00000104683578386048905930000017749764136464257456_">
		<use xlink:href="#SVGID_1_"  style="overflow:visible;"/>
	</clipPath>
	<g style="clip-path:url(#SVGID_00000104683578386048905930000017749764136464257456_);">
		<path class="st1" d="M39.2,43.2H27.3c0,0-0.1,0-0.1,0c0,0,0-0.1,0-0.1v-9c0-0.5-0.6-0.7-0.9-0.3L14.7,47.6
			c-0.1,0.1-0.1,0.2-0.1,0.3c0,0.1,0,0.2,0,0.3c0,0.1,0.1,0.2,0.2,0.2c0.1,0.1,0.2,0.1,0.3,0.1H27c0,0,0.1,0,0.1,0c0,0,0,0.1,0,0.1
			v9c0,0.5,0.6,0.7,0.9,0.3L39.6,44c0.1-0.1,0.1-0.2,0.1-0.3c0-0.1,0-0.2,0-0.3c0-0.1-0.1-0.2-0.2-0.2
			C39.4,43.2,39.3,43.2,39.2,43.2z"/>
		<path class="st2" d="M48.6,57.4V42.3c0-0.2,0.1-0.4,0.2-0.5c0.1-0.1,0.3-0.2,0.5-0.2h3.9c0.2,0,0.4,0.1,0.5,0.2
			c0.1,0.1,0.2,0.3,0.2,0.5v15.2c0,0.2-0.1,0.4-0.2,0.5c-0.1,0.1-0.3,0.2-0.5,0.2h-3.9c-0.2,0-0.4-0.1-0.5-0.2
			C48.6,57.8,48.6,57.6,48.6,57.4z"/>
		<path class="st2" d="M48.6,38.1v-3.8c0-0.1,0-0.2,0.1-0.3c0-0.1,0.1-0.2,0.2-0.2c0.1-0.1,0.1-0.1,0.2-0.2c0.1,0,0.2-0.1,0.3-0.1
			h3.8c0.2,0,0.4,0.1,0.5,0.2s0.2,0.3,0.2,0.5v3.8c0,0.2-0.1,0.4-0.2,0.5c-0.1,0.1-0.3,0.2-0.5,0.2h-3.8c-0.2,0-0.4-0.1-0.5-0.2
			C48.7,38.5,48.6,38.3,48.6,38.1z"/>
		<path class="st2" d="M70.9,57.8l-3.7-6.3c0,0,0,0,0,0c0,0,0,0,0,0c0,0,0,0,0,0c0,0,0,0,0,0l-4.6,6.4c-0.1,0.1-0.1,0.1-0.2,0.2
			c-0.1,0-0.2,0.1-0.3,0.1h-3c-0.2,0-0.4-0.1-0.5-0.2c-0.1-0.1-0.2-0.3-0.2-0.5V34.2c0-0.2,0.1-0.4,0.2-0.5c0.1-0.1,0.3-0.2,0.5-0.2
			h3.9c0.2,0,0.4,0.1,0.5,0.2c0.1,0.1,0.2,0.3,0.2,0.5v14.8c0,0,0,0,0,0c0,0,0,0,0,0c0,0,0,0,0,0c0,0,0,0,0,0l6.5-10
			c0.1-0.1,0.1-0.2,0.2-0.2c0.1-0.1,0.2-0.1,0.3-0.1h4.7c0.1,0,0.2,0,0.3,0.1c0.1,0.1,0.2,0.1,0.2,0.3c0.1,0.1,0.1,0.2,0.1,0.3
			c0,0.1-0.1,0.2-0.1,0.3l-5.1,7c0,0,0,0,0,0c0,0,0,0,0,0l5.9,10.3c0.1,0.1,0.1,0.2,0.1,0.3c0,0.1,0,0.2-0.1,0.3
			c-0.1,0.1-0.1,0.2-0.2,0.2c-0.1,0.1-0.2,0.1-0.3,0.1h-4.6c-0.1,0-0.2,0-0.3-0.1C71.1,58,71,57.9,70.9,57.8z"/>
		<path class="st2" d="M85.7,58.4c-5,0-8.5-4.1-8.5-10c0-5.9,3.5-10,8.5-10c2.1,0,4,0.9,5.5,2.6l0.1,0.1c0,0,0,0,0,0c0,0,0,0,0,0
			c0,0,0,0,0,0c0,0,0,0,0,0l0-0.2v0c0-0.4,0-1,0.1-1.5c0-0.2,0.1-0.3,0.2-0.4c0.1-0.1,0.3-0.2,0.4-0.2h3.7c0.2,0,0.4,0.1,0.5,0.2
			c0.1,0.1,0.2,0.3,0.2,0.5v17.9c0,0.2-0.1,0.4-0.2,0.5c-0.1,0.1-0.3,0.2-0.5,0.2h-3.7c-0.2,0-0.3-0.1-0.4-0.2
			c-0.1-0.1-0.2-0.3-0.2-0.4c0-0.5-0.1-1.2-0.1-1.5c0,0,0,0,0,0l0-0.2c0,0,0,0,0,0c0,0,0,0,0,0c0,0,0,0,0,0c0,0,0,0,0,0l-0.1,0.1
			C89.7,57.5,87.8,58.4,85.7,58.4z M91.4,46.7c-0.1-0.9-0.6-1.8-1.3-2.4c-0.8-0.7-1.9-1.1-3-1.1c-2.8,0-4.8,2.2-4.8,5.2
			c0,3.3,1.7,5.2,4.8,5.2c0.6,0,1.2-0.1,1.8-0.3c1.4-0.6,2.3-1.8,2.5-3.2l0.1-0.4c0.1-0.9,0.1-1.8,0-2.7L91.4,46.7z"/>
		<path class="st2" d="M106.7,58.6c-3,0-4.9-0.6-5.9-1.1c-0.4-0.2-0.8-0.4-1.2-0.7c-0.1-0.1-0.2-0.2-0.2-0.4c0-0.1,0-0.3,0.1-0.4
			l1.5-2.8c0-0.1,0.1-0.1,0.2-0.2c0.1-0.1,0.2-0.1,0.2-0.1c0.1,0,0.2,0,0.3,0c0.1,0,0.2,0.1,0.2,0.1c1.9,1.4,4,1.5,4.8,1.5
			c1.8,0,2.7-0.6,2.7-1.8c0-1.5-1.5-1.9-3.3-2.3c-0.2,0-0.4-0.1-0.5-0.1c-2.5-0.6-5.7-1.8-5.7-5.4c0-1.8,0.8-3.4,2.3-4.5
			c1.5-1.1,3.5-1.7,5.7-1.7c3.2,0,5.5,1.1,6.5,1.7c0.1,0.1,0.2,0.2,0.3,0.4c0,0.2,0,0.3,0,0.5l-1.4,2.7c-0.2,0.3-0.6,0.4-0.9,0.3
			c-1.8-1-3.4-1.3-4.4-1.3c-0.7,0-2.5,0-2.5,1.7c0,1.3,1.1,1.5,2.4,1.8c0.4,0.1,0.9,0.2,1.5,0.4c1.7,0.5,5.7,1.8,5.7,5.6
			c0,1.8-0.8,3.4-2.3,4.6C111.2,57.9,109.1,58.6,106.7,58.6z"/>
	</g>
</g>
</svg>
