<?xml version="1.0" encoding="utf-8"?>
<!-- Generator: Adobe Illustrator 25.4.1, SVG Export Plug-In . SVG Version: 6.00 Build 0)  -->
<svg version="1.0" id="katman_1" xmlns="http://www.w3.org/2000/svg" xmlns:xlink="http://www.w3.org/1999/xlink" x="0px" y="0px"
	 viewBox="0 0 154.2 94.5" style="enable-background:new 0 0 154.2 94.5;" xml:space="preserve">
<style type="text/css">
	.st0{fill:#002D5E;}
</style>
<path class="st0" d="M47.4,46.7c2,0,3.3,0.9,4.2,2v-16c0-0.3-0.4-0.5-0.6-0.3L31.1,46.8h0.5c2.1,0,3.1,1.3,3.1,2.7
	c0,1.1-0.6,1.9-1.4,2.3c-0.1,0.1-0.1,0.2,0,0.3c0.9,0.4,1.6,1.4,1.6,2.5c0,1.6-1.1,2.9-3.1,2.9h-5.7c-0.1,0-0.2-0.1-0.2-0.2v-6.8
	L11.2,61.4c-0.3,0.2-0.1,0.6,0.2,0.6h39.8c0.2,0,0.3-0.2,0.3-0.3v-5.4c-1.1,1-2.5,1.6-4.2,1.6c-3.2,0-5.8-2.2-5.8-5.6
	C41.6,48.8,44.2,46.7,47.4,46.7 M39.5,57.4c0,0.1-0.1,0.2-0.2,0.2h-1.9c-0.1,0-0.2-0.1-0.2-0.2V47c0-0.1,0.1-0.2,0.2-0.2h1.9
	c0.1,0,0.2,0.1,0.2,0.2V57.4z M28.3,50.9V49c0-0.1,0-0.1,0.1-0.1h2.7c0.8,0,1.3,0.5,1.3,1.1c0,0.7-0.5,1.1-1.3,1.1h-2.7
	C28.4,51.1,28.3,51,28.3,50.9 M28.3,55.4v-2c0-0.1,0.1-0.2,0.2-0.2h2.8c0.9,0,1.4,0.6,1.4,1.2c0,0.8-0.5,1.2-1.4,1.2h-2.8
	C28.3,55.6,28.3,55.5,28.3,55.4 M50.1,50l1.5-0.8v2.4h-4.5c-0.1,0-0.2,0.1-0.2,0.2v1.5c0,0.1,0.1,0.2,0.2,0.2h2.5
	c0.1,0,0.2,0.1,0.2,0.2v1c0,0.1,0,0.1-0.1,0.1c-0.5,0.4-1.3,0.8-2.2,0.8c-2,0-3.4-1.5-3.4-3.5s1.4-3.5,3.4-3.5
	c1.1,0,1.9,0.6,2.4,1.2C49.9,50,50,50.1,50.1,50 M53.2,52.2c0-3.3,2.4-5.6,5.5-5.6c2,0,3.3,1,4.1,2.2c0.1,0.1,0,0.2-0.1,0.3
	l-1.2,0.7c-0.1,0-0.2,0-0.2-0.1c-0.5-0.8-1.5-1.4-2.5-1.4c-2.1,0-3.6,1.6-3.6,3.9c0,2.2,1.5,3.9,3.6,3.9c1.1,0,2-0.6,2.5-1.4
	c0-0.1,0.1-0.1,0.2-0.1l1.2,0.6c0.1,0.1,0.1,0.2,0.1,0.3c-0.8,1.2-2.1,2.3-4.1,2.3C55.6,57.8,53.2,55.5,53.2,52.2 M63.9,52.2
	c0-2.7,1.5-4.8,3.9-5.4c3.9-1,7.5,2.6,6.7,6.7C74,56,72,57.7,69.3,57.7C66.1,57.8,63.9,55.4,63.9,52.2 M72.7,52.2
	c0-2.2-1.4-3.9-3.5-3.9s-3.5,1.7-3.5,3.9c0,2.2,1.3,3.9,3.5,3.9C71.3,56.1,72.7,54.4,72.7,52.2 M85.7,57.5v-8.2l-3.3,8.3
	c0,0,0,0.1-0.1,0.1h-0.7c0,0-0.1,0-0.1-0.1l-3.2-8.3v8.2c0,0.1-0.1,0.1-0.1,0.1h-1.6c-0.1,0-0.1-0.1-0.1-0.1V47
	c0-0.1,0.1-0.1,0.1-0.1H79c0.1,0,0.2,0.1,0.2,0.2l2.9,7.4l2.9-7.4c0-0.1,0.1-0.2,0.2-0.2h2.4c0.1,0,0.1,0.1,0.1,0.1v10.5
	c0,0.1-0.1,0.1-0.1,0.1H86C85.8,57.6,85.7,57.6,85.7,57.5 M104.4,57.4V47c0-0.1,0.1-0.2,0.2-0.2h7c0.1,0,0.2,0.1,0.2,0.2v1.3
	c0,0.1-0.1,0.2-0.2,0.2h-5.1c-0.1,0-0.2,0.1-0.2,0.2v2.4c0,0.1,0.1,0.2,0.2,0.2h5c0.1,0,0.2,0.1,0.2,0.2v1.3c0,0.1-0.1,0.2-0.2,0.2
	h-5c-0.1,0-0.2,0.1-0.2,0.2v2.6c0,0.1,0.1,0.2,0.2,0.2h5.1c0.1,0,0.2,0.1,0.2,0.2v1.3c0,0.1-0.1,0.2-0.2,0.2h-7
	C104.5,57.6,104.4,57.5,104.4,57.4 M120.6,57.5l-2.3-3.8c0-0.1-0.1-0.1-0.2-0.1h-1.6c-0.1,0-0.2,0.1-0.2,0.2v3.6
	c0,0.1-0.1,0.2-0.2,0.2h-1.5c-0.1,0-0.2-0.1-0.2-0.2V47c0-0.1,0.1-0.2,0.2-0.2h4.6c2.1,0,3.6,1.4,3.6,3.4c0,1.8-1.1,2.8-2.3,3.1
	c-0.1,0-0.2,0.2-0.1,0.3c0.5,0.7,1.8,2.9,2.3,3.7c0.1,0.1,0,0.3-0.2,0.3h-1.7C120.7,57.6,120.7,57.6,120.6,57.5 M120.9,50.2
	c0-1-0.8-1.7-1.8-1.7h-2.4c-0.1,0-0.2,0.1-0.2,0.2v3c0,0.1,0.1,0.2,0.2,0.2h2.4C120.1,51.9,120.9,51.2,120.9,50.2 M135.6,57.4V47
	c0-0.1,0.1-0.2,0.2-0.2h7c0.1,0,0.2,0.1,0.2,0.2v1.3c0,0.1-0.1,0.2-0.2,0.2h-5.1c-0.1,0-0.2,0.1-0.2,0.2v2.4c0,0.1,0.1,0.2,0.2,0.2
	h5c0.1,0,0.2,0.1,0.2,0.2v1.3c0,0.1-0.1,0.2-0.2,0.2h-5c-0.1,0-0.2,0.1-0.2,0.2v2.6c0,0.1,0.1,0.2,0.2,0.2h5.1
	c0.1,0,0.2,0.1,0.2,0.2v1.3c0,0.1-0.1,0.2-0.2,0.2h-7C135.7,57.6,135.6,57.5,135.6,57.4 M124.2,52.2c0-3.3,2.4-5.6,5.5-5.6
	c2,0,3.3,1,4.1,2.2c0.1,0.1,0,0.2-0.1,0.3l-1.2,0.7c-0.1,0-0.2,0-0.2-0.1c-0.5-0.8-1.5-1.4-2.5-1.4c-2.1,0-3.6,1.6-3.6,3.9
	c0,2.2,1.5,3.9,3.6,3.9c1.1,0,2-0.6,2.5-1.4c0-0.1,0.1-0.1,0.2-0.1l1.2,0.6c0.1,0.1,0.1,0.2,0.1,0.3c-0.8,1.2-2.1,2.3-4.1,2.3
	C126.6,57.8,124.2,55.5,124.2,52.2 M99.7,57.5v-8.2l-3.3,8.3c0,0,0,0.1-0.1,0.1h-0.7c0,0-0.1,0-0.1-0.1l-3.2-8.3v8.2
	c0,0.1-0.1,0.1-0.1,0.1h-1.6c-0.1,0-0.1-0.1-0.1-0.1V47c0-0.1,0.1-0.1,0.1-0.1H93c0.1,0,0.2,0.1,0.2,0.2l2.9,7.4l2.9-7.4
	c0-0.1,0.1-0.2,0.2-0.2h2.4c0.1,0,0.1,0.1,0.1,0.1v10.5c0,0.1-0.1,0.1-0.1,0.1H100C99.8,57.6,99.7,57.6,99.7,57.5"/>
</svg>
