<?xml version="1.0" encoding="UTF-8" standalone="no"?>
<!DOCTYPE svg PUBLIC "-//W3C//DTD SVG 1.1//EN" "http://www.w3.org/Graphics/SVG/1.1/DTD/svg11.dtd">
<svg width="100%" height="100%" viewBox="0 0 500 500" version="1.1" xmlns="http://www.w3.org/2000/svg" xmlns:xlink="http://www.w3.org/1999/xlink" xml:space="preserve" xmlns:serif="http://www.serif.com/" style="fill-rule:evenodd;clip-rule:evenodd;stroke-linejoin:round;stroke-miterlimit:2;">
    <g id="katman_2">
        <g id="katman_1-2">
            <path d="M112.69,167.122L112.69,193.438C117.124,188.314 122.386,185.68 128.614,185.68C131.575,185.621 134.512,186.236 137.2,187.48C139.518,188.45 141.529,190.03 143.02,192.052C144.314,193.877 145.21,195.954 145.648,198.148C146.181,201.583 146.414,205.058 146.344,208.534L146.344,239.002L132.634,239.002L132.634,211.3C132.634,205.9 132.356,202.438 131.8,200.914C131.33,199.462 130.346,198.231 129.034,197.452C127.524,196.571 125.795,196.138 124.048,196.204C121.901,196.18 119.79,196.756 117.952,197.866C116.127,199.035 114.759,200.795 114.076,202.852C113.244,205.084 112.828,208.4 112.828,212.8L112.828,238.84L99.118,238.84L99.118,167.122L112.69,167.122Z" style="fill:rgb(243,98,35);fill-rule:nonzero;"/>
            <path d="M186.166,222.244L199.876,224.596C198.076,229.582 195.304,233.458 191.566,236.092C187.828,238.726 182.98,239.968 177.304,239.968C168.304,239.968 161.512,237.064 157.222,231.106C153.76,226.396 152.098,220.444 152.098,213.238C152.098,204.652 154.312,197.866 158.884,193.024C163.312,188.176 169.132,185.68 175.918,185.68C183.67,185.68 189.766,188.176 194.2,193.3C198.634,198.424 200.848,206.176 200.566,216.7L166.222,216.7C166.358,220.7 167.466,223.884 169.546,226.252C171.56,228.485 174.435,229.746 177.442,229.714C179.656,229.714 181.456,229.162 182.842,227.914C184.488,226.395 185.645,224.422 186.166,222.244ZM187,208.396C186.862,204.376 185.896,201.328 183.958,199.252C182.119,197.233 179.488,196.119 176.758,196.204C173.892,196.126 171.144,197.348 169.282,199.528C167.344,201.748 166.372,204.652 166.372,208.396L187,208.396Z" style="fill:rgb(243,98,35);fill-rule:nonzero;"/>
            <path d="M206.944,186.79L219.826,186.79L219.826,194.404C221.516,191.749 223.845,189.56 226.6,188.038C229.45,186.359 232.707,185.495 236.014,185.542C242.11,185.542 247.234,187.896 251.386,192.604C255.544,197.314 257.758,203.962 257.758,212.404C257.758,221.128 255.682,227.776 251.386,232.624C247.09,237.472 241.972,239.824 236.014,239.824C233.336,239.88 230.682,239.311 228.262,238.162C225.904,237.058 223.414,235.114 220.918,232.348L220.918,258.52L207.22,258.52L207.22,186.79L206.944,186.79ZM220.516,211.99C220.516,217.804 221.626,222.1 223.978,224.866C226.33,227.632 229.102,229.024 232.426,229.024C235.564,229.061 238.538,227.624 240.46,225.142C242.536,222.652 243.646,218.356 243.646,212.542C243.646,207.142 242.536,202.984 240.322,200.356C238.108,197.728 235.474,196.336 232.15,196.336C228.93,196.263 225.859,197.691 223.84,200.2C221.626,202.99 220.516,206.872 220.516,211.996L220.516,211.99Z" style="fill:rgb(243,98,35);fill-rule:nonzero;"/>
            <path d="M261.124,223.906L274.972,221.83C275.397,224.228 276.676,226.391 278.572,227.92C280.372,229.304 282.864,229.996 286.048,229.996C289.648,229.996 292.282,229.306 294.082,228.058C295.283,227.203 295.962,225.792 295.882,224.32C295.947,223.344 295.593,222.386 294.91,221.686C294.22,220.996 292.696,220.444 290.338,219.886C279.262,217.396 272.2,215.182 269.29,213.238C265.285,210.753 262.909,206.321 263.056,201.61C263.056,197.038 264.856,193.3 268.456,190.252C272.056,187.204 277.456,185.68 284.932,185.68C291.994,185.68 297.262,186.79 300.724,189.142C304.186,191.494 306.538,194.824 307.924,199.39L294.904,201.748C294.435,199.849 293.306,198.18 291.718,197.038C290.202,195.946 287.99,195.4 285.082,195.4C281.482,195.4 278.854,195.952 277.33,196.924C276.348,197.491 275.761,198.557 275.806,199.69C275.804,200.706 276.328,201.651 277.192,202.186C278.434,203.152 282.73,204.4 290.068,206.062C297.406,207.724 302.536,209.8 305.44,212.158C308.35,214.648 309.736,217.972 309.736,222.406C309.736,227.116 307.798,231.268 303.778,234.73C299.758,238.192 293.95,239.854 286.054,239.854C278.992,239.854 273.31,238.468 269.296,235.564C265.134,232.916 262.194,228.722 261.124,223.906Z" style="fill:rgb(243,98,35);fill-rule:nonzero;"/>
            <path d="M314.89,173.494C314.89,169.975 317.743,167.122 321.262,167.122L322.228,167.122C325.747,167.122 328.6,169.975 328.6,173.494C328.6,177.013 325.747,179.866 322.228,179.866L321.262,179.866C317.743,179.866 314.89,177.013 314.89,173.494ZM314.89,238.894L314.89,186.79L328.6,186.79L328.6,238.726L314.89,238.726L314.89,238.894Z" style="fill:rgb(243,98,35);fill-rule:nonzero;"/>
            <path d="M99.118,330.97L99.118,259.162L112.81,259.162L112.81,285.028C117.1,280.192 122.08,277.828 127.888,277.828C133.865,277.7 139.591,280.232 143.518,284.74C147.67,289.306 149.746,295.948 149.746,304.54C149.746,313.396 147.67,320.17 143.38,325.012C139.234,329.854 133.978,332.212 128.026,332.212C124.982,332.218 121.986,331.457 119.314,329.998C116.332,328.411 113.772,326.136 111.844,323.362L111.844,330.97L99.118,330.97ZM112.672,303.706C112.672,309.106 113.506,313.114 115.162,315.598C117.514,319.198 120.694,321.136 124.708,321.136C127.763,321.164 130.645,319.722 132.454,317.26C134.53,314.632 135.634,310.624 135.634,305.086C135.634,299.14 134.53,294.85 132.454,292.222C130.459,289.688 127.38,288.252 124.156,288.352C120.971,288.251 117.933,289.692 115.996,292.222C113.8,294.574 112.672,298.45 112.672,303.706Z" style="fill:rgb(243,98,35);fill-rule:nonzero;"/>
            <path d="M188.584,330.814L188.584,323.068C184.642,328.629 178.246,331.931 171.43,331.924C168.145,331.952 164.907,331.142 162.022,329.572C159.338,328.169 157.233,325.867 156.076,323.068C154.828,320.302 154.276,316.432 154.276,311.59L154.276,278.8L167.974,278.8L167.974,302.728C167.974,310.06 168.25,314.488 168.664,316.15C169.121,317.716 170.096,319.081 171.43,320.02C172.946,321.012 174.738,321.497 176.548,321.406C178.813,321.401 181.025,320.727 182.908,319.468C184.676,318.301 186.032,316.607 186.784,314.626C187.474,312.688 187.75,307.984 187.75,300.658L187.75,278.8L201.448,278.8L201.448,330.67L188.584,330.67L188.584,330.814Z" style="fill:rgb(243,98,35);fill-rule:nonzero;"/>
            <path d="M224.476,330.814L210.778,330.814L210.778,278.8L223.504,278.8L223.504,286.132C225.718,282.676 227.656,280.324 229.456,279.214C231.24,278.107 233.303,277.532 235.402,277.558C238.593,277.547 241.719,278.459 244.402,280.186L240.118,292.216C237.766,290.698 235.69,290.002 233.614,290.002C231.875,289.956 230.171,290.492 228.772,291.526C227.392,292.63 226.42,294.43 225.592,297.334C224.764,300.1 224.488,305.914 224.488,314.764L224.476,330.814Z" style="fill:rgb(243,98,35);fill-rule:nonzero;"/>
            <path d="M292.816,330.814L279.262,330.814C278.848,329.848 278.416,325.6 278.416,325.6C278.01,325.579 277.624,325.418 277.324,325.144C275.157,327.279 272.628,329.012 269.854,330.262C267.136,331.384 264.22,331.949 261.28,331.924C255.88,331.924 251.734,330.538 248.68,327.634C245.662,324.815 243.999,320.836 244.114,316.708C244.076,313.931 244.798,311.196 246.202,308.8C247.586,306.47 249.665,304.631 252.148,303.544C254.638,302.296 258.376,301.192 263.074,300.364C269.44,299.116 274.006,298.012 276.358,297.04L276.358,295.66C276.358,293.032 275.662,291.094 274.42,289.984C273.178,288.874 270.682,288.328 267.088,288.328C264.598,288.328 262.798,288.742 261.418,289.708C259.747,290.941 258.529,292.692 257.956,294.688L245.506,292.474C246.892,287.494 249.382,283.762 252.706,281.272C256.168,278.92 261.148,277.672 267.922,277.672C274.012,277.672 278.572,278.362 281.62,279.88C284.589,281.301 287.179,283.404 289.18,286.018C291.567,289.451 292.825,293.543 292.78,297.724M276.22,305.8C274.42,306.352 271.652,307.042 267.916,307.87C264.184,308.704 261.556,309.532 260.446,310.222C258.792,311.273 257.798,313.104 257.818,315.064C257.782,316.97 258.593,318.794 260.032,320.044C261.521,321.452 263.516,322.201 265.564,322.12C268.131,322.087 270.613,321.201 272.62,319.6C274.193,318.479 275.358,316.876 275.938,315.034C276.358,313.93 276.496,311.578 276.496,308.398L276.496,305.8L276.22,305.8Z" style="fill:rgb(243,98,35);fill-rule:nonzero;"/>
            <path d="M347.974,330.814L335.248,330.814L335.248,323.2C333.323,325.978 330.762,328.256 327.778,329.842C325.076,331.222 322.099,331.979 319.066,332.056C313.12,332.056 308.002,329.704 303.712,324.856C299.422,320.008 297.352,313.378 297.352,304.798C297.352,295.948 299.422,289.306 303.574,284.74C307.514,280.268 313.214,277.742 319.174,277.828C324.982,277.828 329.974,280.18 334.252,285.028L334.252,259.162L347.944,259.162L347.944,330.814L347.974,330.814ZM311.32,303.706C311.32,309.238 312.148,313.252 313.672,315.742C315.886,319.342 318.928,321.142 322.942,321.142C326.122,321.142 328.75,319.756 330.964,317.128C333.178,314.5 334.282,310.486 334.282,305.092C334.282,299.146 333.178,294.856 331.102,292.228C327.334,287.682 320.593,287.051 316.047,290.819C315.534,291.244 315.063,291.716 314.638,292.228C312.4,294.712 311.32,298.6 311.32,303.706Z" style="fill:rgb(243,98,35);fill-rule:nonzero;"/>
            <path d="M401.2,330.814L387.646,330.814C387.232,329.848 386.8,325.6 386.8,325.6C386.394,325.579 386.008,325.418 385.708,325.144C383.541,327.279 381.012,329.012 378.238,330.262C375.52,331.384 372.604,331.949 369.664,331.924C364.264,331.924 360.118,330.538 357.064,327.634C354.046,324.815 352.383,320.836 352.498,316.708C352.46,313.931 353.182,311.196 354.586,308.8C355.97,306.47 358.049,304.631 360.532,303.544C363.022,302.296 366.754,301.192 371.458,300.364C377.824,299.116 382.39,298.012 384.742,297.04L384.742,295.66C384.742,293.032 384.046,291.094 382.804,289.984C381.562,288.874 379.066,288.328 375.472,288.328C372.982,288.328 371.182,288.742 369.802,289.708C368.131,290.941 366.913,292.692 366.34,294.688L353.89,292.474C355.276,287.494 357.766,283.762 361.09,281.272C364.552,278.92 369.532,277.672 376.306,277.672C382.396,277.672 386.956,278.362 390.004,279.88C392.973,281.301 395.563,283.404 397.564,286.018C399.951,289.451 401.209,293.543 401.164,297.724M384.598,305.8C382.802,306.352 380.036,307.042 376.3,307.87C372.568,308.704 369.94,309.532 368.83,310.222C367.176,311.273 366.182,313.104 366.202,315.064C366.166,316.97 366.977,318.794 368.416,320.044C369.905,321.452 371.9,322.201 373.948,322.12C376.515,322.087 378.997,321.201 381.004,319.6C382.577,318.479 383.742,316.876 384.322,315.034C384.742,313.93 384.88,311.578 384.88,308.398L384.88,305.8L384.598,305.8Z" style="fill:rgb(243,98,35);fill-rule:nonzero;"/>
            <path d="M94.51,87.4L115.75,107.8C152.007,73.459 200.062,54.345 250,54.4C314.578,54.4 371.836,85.702 407.452,133.948L430,114.946C388.924,60.328 323.59,25 250,25C192.054,24.927 136.33,47.29 94.51,87.4Z" style="fill:rgb(243,98,35);fill-rule:nonzero;"/>
            <path d="M431.488,383.014C490.119,302.99 489.437,194.014 429.808,114.73L407.2,133.636C458.23,202.576 458.393,296.72 407.602,365.836L431.488,383.014Z" style="fill:rgb(71,199,238);fill-rule:nonzero;"/>
            <path d="M431.614,382.846L407.8,365.548C372.232,414.082 314.8,445.6 250,445.6C242.937,445.597 235.879,445.216 228.856,444.46L228.154,473.95C235.342,474.65 242.624,475 250,475C324.574,475 390.67,438.718 431.614,382.846Z" style="fill:rgb(108,83,164);fill-rule:nonzero;"/>
            <path d="M228.466,473.98L228.934,444.466C176.897,438.857 129.288,412.601 96.778,371.584L74.512,390.832C112.487,438.212 168.021,468.205 228.466,473.98Z" style="fill:rgb(106,198,183);fill-rule:nonzero;"/>
            <path d="M74.8,391.174L97.078,371.938C72.457,341.162 57.757,303.638 54.922,264.328L25.732,268.222C29.322,313.215 46.426,356.072 74.8,391.174Z" style="fill:rgb(93,24,107);fill-rule:nonzero;"/>
            <path d="M54.4,250C54.338,196.062 76.615,144.505 115.936,107.584L94.876,87.028C50.194,129.452 24.925,188.386 25,250C25,256.316 25.258,262.57 25.774,268.762L54.952,264.736C54.584,259.872 54.4,254.96 54.4,250Z" style="fill:rgb(250,164,29);fill-rule:nonzero;"/>
        </g>
    </g>
</svg>
